<svg width="59" height="13" viewBox="0 0 59 13" fill="none" xmlns="http://www.w3.org/2000/svg">
<path d="M0.273438 6.42188C0.273438 4.52083 0.783854 3.03385 1.80469 1.96094C2.82552 0.882812 4.14323 0.34375 5.75781 0.34375C6.8151 0.34375 7.76823 0.596354 8.61719 1.10156C9.46615 1.60677 10.112 2.3125 10.5547 3.21875C11.0026 4.11979 11.2266 5.14323 11.2266 6.28906C11.2266 7.45052 10.9922 8.48958 10.5234 9.40625C10.0547 10.3229 9.39062 11.0182 8.53125 11.4922C7.67188 11.9609 6.74479 12.1953 5.75 12.1953C4.67188 12.1953 3.70833 11.9349 2.85938 11.4141C2.01042 10.8932 1.36719 10.1823 0.929688 9.28125C0.492188 8.38021 0.273438 7.42708 0.273438 6.42188ZM1.83594 6.44531C1.83594 7.82552 2.20573 8.91406 2.94531 9.71094C3.6901 10.5026 4.6224 10.8984 5.74219 10.8984C6.88281 10.8984 7.82031 10.4974 8.55469 9.69531C9.29427 8.89323 9.66406 7.75521 9.66406 6.28125C9.66406 5.34896 9.50521 4.53646 9.1875 3.84375C8.875 3.14583 8.41406 2.60677 7.80469 2.22656C7.20052 1.84115 6.52083 1.64844 5.76562 1.64844C4.69271 1.64844 3.76823 2.01823 2.99219 2.75781C2.22135 3.49219 1.83594 4.72135 1.83594 6.44531ZM13.0547 3.70312H14.4609V10.8359H17.6641V3.70312H19.0703V10.8359H22.2812V3.70312H23.6797V12H13.0547V3.70312ZM25.8516 3.70312H27.2578V10.0312L31.1562 3.70312H32.6719V12H31.2656V5.71094L27.3672 12H25.8516V3.70312ZM40.8672 0.273438L42.1094 0.289062C42.0521 0.846354 41.9271 1.23438 41.7344 1.45312C41.5469 1.67188 41.3021 1.8125 41 1.875C40.7031 1.9375 40.1172 1.96875 39.2422 1.96875C38.0807 1.96875 37.2891 2.08073 36.8672 2.30469C36.4453 2.52865 36.1406 2.88802 35.9531 3.38281C35.7708 3.8724 35.6693 4.50521 35.6484 5.28125C36.0026 4.75521 36.4167 4.36198 36.8906 4.10156C37.3646 3.83594 37.8984 3.70312 38.4922 3.70312C39.5807 3.70312 40.4818 4.07812 41.1953 4.82812C41.9089 5.57292 42.2656 6.58333 42.2656 7.85938C42.2656 8.82812 42.0859 9.6224 41.7266 10.2422C41.3672 10.862 40.9401 11.3411 40.4453 11.6797C39.9557 12.0182 39.2865 12.1875 38.4375 12.1875C37.4531 12.1875 36.6875 11.9635 36.1406 11.5156C35.5938 11.0625 35.1745 10.4844 34.8828 9.78125C34.5911 9.07812 34.4453 7.85417 34.4453 6.10938C34.4453 3.91667 34.8151 2.4401 35.5547 1.67969C36.2995 0.919271 37.4427 0.539062 38.9844 0.539062C39.9427 0.539062 40.487 0.523438 40.6172 0.492188C40.7474 0.460938 40.8307 0.388021 40.8672 0.273438ZM40.7969 7.82031C40.7969 6.95573 40.5911 6.2474 40.1797 5.69531C39.7734 5.14323 39.1979 4.86719 38.4531 4.86719C37.6771 4.86719 37.0781 5.15885 36.6562 5.74219C36.2344 6.32552 36.0234 7.10417 36.0234 8.07812C36.0234 9.04167 36.2552 9.77865 36.7188 10.2891C37.1875 10.7995 37.763 11.0547 38.4453 11.0547C39.1432 11.0547 39.7083 10.7604 40.1406 10.1719C40.5781 9.57812 40.7969 8.79427 40.7969 7.82031ZM43.9531 3.70312H45.3594V7.28906C45.8073 7.28906 46.1198 7.20312 46.2969 7.03125C46.4792 6.85938 46.7448 6.35938 47.0938 5.53125C47.3698 4.875 47.5938 4.44271 47.7656 4.23438C47.9375 4.02604 48.1354 3.88542 48.3594 3.8125C48.5833 3.73958 48.9427 3.70312 49.4375 3.70312H49.7188V4.86719L49.3281 4.85938C48.9583 4.85938 48.7214 4.91406 48.6172 5.02344C48.5078 5.13802 48.3411 5.47917 48.1172 6.04688C47.9036 6.58854 47.7083 6.96354 47.5312 7.17188C47.3542 7.38021 47.0807 7.57031 46.7109 7.74219C47.3151 7.90365 47.9089 8.46615 48.4922 9.42969L50.0312 12H48.4844L46.9844 9.42969C46.6771 8.91406 46.4089 8.57552 46.1797 8.41406C45.9505 8.2474 45.6771 8.16406 45.3594 8.16406V12H43.9531V3.70312ZM56.7344 10.9766C56.2135 11.4193 55.7109 11.7318 55.2266 11.9141C54.7474 12.0964 54.2318 12.1875 53.6797 12.1875C52.7682 12.1875 52.0677 11.9661 51.5781 11.5234C51.0885 11.0755 50.8438 10.5052 50.8438 9.8125C50.8438 9.40625 50.9349 9.03646 51.1172 8.70312C51.3047 8.36458 51.5469 8.09375 51.8438 7.89062C52.1458 7.6875 52.4844 7.53385 52.8594 7.42969C53.1354 7.35677 53.5521 7.28646 54.1094 7.21875C55.2448 7.08333 56.0807 6.92188 56.6172 6.73438C56.6224 6.54167 56.625 6.41927 56.625 6.36719C56.625 5.79427 56.4922 5.39062 56.2266 5.15625C55.8672 4.83854 55.3333 4.67969 54.625 4.67969C53.9635 4.67969 53.474 4.79688 53.1562 5.03125C52.8438 5.26042 52.612 5.66927 52.4609 6.25781L51.0859 6.07031C51.2109 5.48177 51.4167 5.00781 51.7031 4.64844C51.9896 4.28385 52.4036 4.00521 52.9453 3.8125C53.487 3.61458 54.1146 3.51562 54.8281 3.51562C55.5365 3.51562 56.112 3.59896 56.5547 3.76562C56.9974 3.93229 57.3229 4.14323 57.5312 4.39844C57.7396 4.64844 57.8854 4.96615 57.9688 5.35156C58.0156 5.59115 58.0391 6.02344 58.0391 6.64844V8.52344C58.0391 9.83073 58.0677 10.6589 58.125 11.0078C58.1875 11.3516 58.3073 11.6823 58.4844 12H57.0156C56.8698 11.7083 56.776 11.3672 56.7344 10.9766ZM56.6172 7.83594C56.1068 8.04427 55.3411 8.22135 54.3203 8.36719C53.7422 8.45052 53.3333 8.54427 53.0938 8.64844C52.8542 8.7526 52.6693 8.90625 52.5391 9.10938C52.4089 9.30729 52.3438 9.52865 52.3438 9.77344C52.3438 10.1484 52.4844 10.4609 52.7656 10.7109C53.0521 10.9609 53.4688 11.0859 54.0156 11.0859C54.5573 11.0859 55.0391 10.9688 55.4609 10.7344C55.8828 10.4948 56.1927 10.1693 56.3906 9.75781C56.5417 9.4401 56.6172 8.97135 56.6172 8.35156V7.83594Z" fill="#DF2030"/>
</svg>
